<svg xmlns="http://www.w3.org/2000/svg" width="280" height="106.25"><g><path d="M43.279 47.209v-13.741c0-.146.138-16.904 15.179-17.624l9.665-.428c6.585-.909 10.424-2.789 12.794-7.803v19.711s-.019.579-.237 1.475c-1.525 6.065-7.376 8.563-13.629 8.886l-8.431.428c-9.25.491-12.395 4.241-15.34 9.095zm0 34.164c0-.14.138-16.905 15.179-17.62l9.665-.43c6.585-.906 10.424-2.784 12.794-7.796v19.707s-.019.58-.237 1.47c-1.525 6.066-7.376 8.565-13.629 8.891l-8.431.432c-9.25.488-12.395 4.237-15.34 9.09v-13.745zm-3.506-7.468c-2.941-4.857-6.09-8.606-15.337-9.092l-8.429-.43c-6.256-.328-12.109-2.821-13.63-8.891-.221-.892-.237-1.471-.237-1.471v-19.715c2.366 5.018 6.206 6.9 12.789 7.808l9.669.425c15.037.722 15.176 17.484 15.176 17.625v13.742zm18.765-33.366l8.886-.471c15.549-.858 15.859-12.679 15.862-12.784v-27.044l-1.299-.126c-.013.068-2.43 12.093-13.564 12.654l-10.19.479c-8.605.425-12.946 5.707-15.094 10.797-2.136 5.061-2.163 10.003-2.163 10.035v18.979c-.247-.835-.52-1.621-.835-2.362-2.147-5.094-6.49-10.371-15.092-10.804l-10.191-.474c-6.69-.339-10.977-4.934-13.018-10.766-.39-1.14-.546-1.887-.546-1.887l-1.295.127v27.048s.011.767.288 1.919c1.746 7.304 8.365 10.464 15.568 10.864l8.889.471c13.094.727 16.032 15.241 16.234 17.646v21.411h1.318c0-1.47 2.64-17.115 16.242-17.871l8.886-.471c15.549-.861 15.859-12.677 15.862-12.781v-27.049l-1.299-.125c-.013.061-2.43 12.087-13.564 12.651l-10.19.474c-8.605.435-12.946 5.716-15.094 10.806-.323.757-.598 1.52-.83 2.259l.011-15.819c-.181-1.165 3.554-17.785 16.216-17.785" fill="#0aa85f" fill-rule="evenodd" clip-path="url(#a)"/><g clip-path="url(#b)" fill="#0aa85f"><path d="M121.976 49.836v-.349c0-1.893-.673-2.888-1.968-2.888-.647 0-1.22.297-1.494.821-.323.547-.398 1.045-.398 2.39v5.525c0 1.27.075 1.917.274 2.465.249.647.896 1.071 1.667 1.071 1.32 0 1.991-1.071 1.991-3.236 0-.075 0-.249-.025-.424h2.589v.573c0 3.585-1.567 5.501-4.555 5.501-1.667 0-2.988-.646-3.709-1.841-.623-1.021-.797-1.991-.797-4.456v-4.655c0-2.614.2-3.56.971-4.605.722-.996 1.991-1.542 3.51-1.542 2.837 0 4.506 1.89 4.506 5.152v.498h-2.564"/><path d="M129.493 56.905c0 1.569.449 2.266 1.47 2.266 1.044 0 1.492-.698 1.492-2.266v-4.107c0-1.567-.449-2.264-1.469-2.264-1.045 0-1.494.696-1.494 2.264v4.107zm5.278-.149c0 1.941-.224 2.788-.97 3.51-.673.671-1.644 1.02-2.814 1.02-1.195 0-2.165-.349-2.837-1.02-.722-.722-.971-1.569-.971-3.51v-3.809c0-1.941.249-2.788.971-3.535.673-.646 1.643-.996 2.837-.996 1.17 0 2.141.35 2.814.996.746.747.97 1.594.97 3.535v3.809"/><path d="M140.073 50.259c1.07-1.244 1.991-1.767 3.086-1.767 1.37 0 2.016.921 2.016 2.889v9.658h-2.315v-9.061c0-1.095-.224-1.442-.896-1.442-.621 0-1.319.448-1.891 1.244v9.26h-2.315v-12.371h2.315v1.593"/><path d="M150.798 61.037l-3.036-12.371h2.465l1.767 7.866 1.567-7.866h2.439l-2.763 12.371h-2.44"/><path d="M163.594 52.524c0-1.467-.448-2.066-1.519-2.066-1.07 0-1.519.623-1.519 2.066v.673h3.038v-.673zm-3.038 2.714v1.095c0 1.195.075 1.742.3 2.166.224.424.696.673 1.27.673 1.02 0 1.492-.649 1.492-2.091v-.324h2.316c-.026 1.693-.101 2.24-.474 2.862-.599 1.07-1.792 1.667-3.335 1.667-1.42 0-2.491-.448-3.114-1.294-.546-.772-.771-1.693-.771-3.36v-3.685c0-1.966.225-2.788.996-3.51.671-.671 1.644-1.021 2.813-1.021 1.245 0 2.266.399 2.913 1.145.698.797.946 1.694.946 3.635v2.041h-5.353"/><path d="M171.012 50.259c1.07-1.244 1.99-1.767 3.086-1.767 1.37 0 2.016.921 2.016 2.889v9.658h-2.315v-9.061c0-1.095-.224-1.442-.896-1.442-.621 0-1.32.448-1.891 1.244v9.26h-2.315v-12.371h2.315v1.593"/><path d="M184.604 50.733h-2.116v6.596c0 1.244.423 1.766 1.442 1.766.275 0 .498-.049.897-.149v2.091c-.649.125-1.046.175-1.569.175-1.17 0-2.016-.3-2.515-.922-.446-.546-.571-1.145-.571-2.714v-6.844h-1.791v-2.066h1.791v-3.385h2.315v3.385h2.116v2.066"/><path d="M187.091 48.666h2.316v12.371h-2.316v-12.371zm0-4.232h2.316v2.415h-2.316v-2.415z"/><path d="M194.535 56.905c0 1.569.448 2.266 1.469 2.266 1.045 0 1.494-.698 1.494-2.266v-4.107c0-1.567-.449-2.264-1.469-2.264-1.046 0-1.494.696-1.494 2.264v4.107zm5.278-.149c0 1.941-.225 2.788-.97 3.51-.673.671-1.644 1.02-2.814 1.02-1.195 0-2.166-.349-2.839-1.02-.721-.722-.97-1.569-.97-3.51v-3.809c0-1.941.249-2.788.97-3.535.673-.646 1.644-.996 2.839-.996 1.17 0 2.141.35 2.814.996.745.747.97 1.594.97 3.535v3.809"/><path d="M205.041 50.259c1.069-1.244 1.99-1.767 3.085-1.767 1.37 0 2.018.921 2.018 2.889v9.658h-2.316v-9.061c0-1.095-.224-1.442-.896-1.442-.621 0-1.319.448-1.89 1.244v9.26h-2.316v-12.371h2.316v1.593"/><path d="M220.846 56.905c0 1.569.449 2.266 1.47 2.266 1.045 0 1.492-.698 1.492-2.266v-4.107c0-1.567-.448-2.264-1.467-2.264-1.046 0-1.495.696-1.495 2.264v4.107zm5.279-.149c0 1.941-.225 2.788-.971 3.51-.673.671-1.644 1.02-2.813 1.02-1.195 0-2.166-.349-2.839-1.02-.721-.722-.97-1.569-.97-3.51v-3.809c0-1.941.249-2.788.97-3.535.673-.646 1.644-.996 2.839-.996 1.169 0 2.14.35 2.813.996.746.747.971 1.594.971 3.535v3.809"/><path d="M230.954 50.259c1.07-1.244 1.99-1.767 3.086-1.767 1.37 0 2.016.921 2.016 2.889v9.658h-2.315v-9.061c0-1.095-.224-1.442-.896-1.442-.621 0-1.32.448-1.891 1.244v9.26h-2.315v-12.371h2.315v1.593"/><path d="M119.586 84.234c1.618 0 2.564-.848 2.564-2.34 0-1.667-1.145-2.764-2.938-2.764h-.921v5.104h1.295zm-.374-7.469c1.567 0 2.589-.92 2.589-2.34 0-.623-.224-1.17-.623-1.542-.424-.374-.945-.522-1.916-.522h-.971v4.405h.921zm-3.485-6.771h3.834c3.111 0 4.854 1.519 4.854 4.208 0 1.968-.871 3.136-2.739 3.709 2.241.647 3.137 1.792 3.137 3.984 0 2.936-1.843 4.704-4.929 4.704h-4.157v-16.604"/><path d="M127.626 74.226h2.315v12.372h-2.315v-12.372zm0-4.232h2.315v2.416h-2.315v-2.416z"/><path d="M135.094 82.466c0 1.569.448 2.265 1.469 2.265 1.045 0 1.494-.696 1.494-2.265v-4.109c0-1.566-.449-2.264-1.469-2.264-1.046 0-1.494.698-1.494 2.264v4.109zm5.278-.149c0 1.94-.225 2.786-.971 3.509-.673.671-1.643 1.021-2.813 1.021-1.195 0-2.166-.35-2.837-1.021-.722-.722-.971-1.569-.971-3.509v-3.809c0-1.943.249-2.789.971-3.536.671-.646 1.643-.995 2.837-.995 1.17 0 2.14.349 2.813.995.746.747.971 1.594.971 3.536v3.809"/><path d="M143.184 69.994h2.315v16.604h-2.315v-16.604z"/><path d="M150.651 82.466c0 1.569.448 2.265 1.47 2.265 1.045 0 1.492-.696 1.492-2.265v-4.109c0-1.566-.448-2.264-1.469-2.264-1.046 0-1.494.698-1.494 2.264v4.109zm5.279-.149c0 1.94-.225 2.786-.973 3.509-.671.671-1.643 1.021-2.813 1.021-1.195 0-2.165-.35-2.837-1.021-.721-.722-.971-1.569-.971-3.509v-3.809c0-1.943.25-2.789.971-3.536.673-.646 1.643-.995 2.837-.995 1.17 0 2.141.349 2.813.995.747.747.973 1.594.973 3.536v3.809"/><path d="M160.884 79.479c0 1.344.47 2.016 1.393 2.016.97 0 1.42-.647 1.42-2.016v-1.37c0-1.368-.45-2.015-1.395-2.015-.948 0-1.417.671-1.417 2.015v1.37zm.198 7.518c-.299.249-.547.696-.547 1.046 0 .721.647 1.02 2.29 1.02 1.619 0 2.365-.349 2.365-1.071 0-.471-.299-.721-.97-.821-.35-.074-.573-.074-1.843-.124-.324-.025-.649-.05-1.22-.125l-.075.075zm6.422-10.43c-.274-.249-.473-.324-.796-.324-.4 0-.623.125-.896.473.175.649.249 1.221.249 2.066 0 3.086-1.32 4.755-3.734 4.755-.274 0-.499-.025-.896-.1-.349.175-.546.424-.546.722 0 .274.173.449.496.547.249.05.498.074 1.917.15 1.567.099 2.239.247 2.911.671.747.474 1.171 1.344 1.171 2.39 0 2.115-1.544 3.086-4.93 3.086-2.862 0-4.281-.746-4.281-2.24 0-.971.574-1.569 1.941-2.041-1.046-.424-1.444-.871-1.444-1.619 0-.945.522-1.442 1.916-1.916-1.442-.771-2.065-2.091-2.065-4.406 0-3.086 1.32-4.73 3.809-4.73 1.419 0 2.241.449 3.013 1.569.323-1.12.945-1.569 2.165-1.519v2.465"/><path d="M169.471 74.226h2.315v12.372h-2.315v-12.372zm0-4.232h2.315v2.416h-2.315v-2.416z"/><path d="M180 78.509v-.325c0-1.419-.473-2.09-1.494-2.09-.573 0-1.046.247-1.269.671-.224.424-.3.97-.3 2.165v2.988c0 1.171.076 1.718.3 2.141.222.424.696.673 1.269.673 1.021 0 1.494-.673 1.494-2.166v-.349h2.315v.473c0 1.47-.249 2.34-.871 3.014-.673.746-1.694 1.145-2.938 1.145-1.394 0-2.489-.449-3.111-1.295-.573-.772-.771-1.643-.771-3.336v-3.584c0-1.693.199-2.589.771-3.36.623-.848 1.718-1.295 3.111-1.295 1.27 0 2.265.372 2.938 1.12.623.671.871 1.519.871 2.961v.45h-2.315"/><path d="M189.685 80.226c-2.041 1.095-2.864 1.966-2.864 3.111 0 .821.498 1.394 1.17 1.394.647 0 1.244-.399 1.694-1.12v-3.385zm.198 6.371c-.125-.348-.198-.846-.198-1.444-1.121 1.22-1.792 1.619-2.789 1.619-1.569 0-2.515-1.245-2.515-3.286 0-1.542.573-2.515 2.018-3.411.596-.372 1.219-.671 3.286-1.566v-.649c0-1.27-.35-1.766-1.221-1.766-.871 0-1.27.522-1.37 1.766h-2.439c.2-2.464 1.644-3.809 4.134-3.809 1.145 0 1.965.324 2.539.946.522.623.671 1.22.671 2.737v5.503c0 1.866.05 2.439.274 3.36h-2.39"/><path d="M195.086 69.994h2.315v16.604h-2.315v-16.604z"/><path d="M209.399 84.234c1.816 0 2.464-.946 2.464-3.535v-4.805c0-2.614-.647-3.534-2.464-3.534h-1.27v11.874h1.27zm-3.832-14.24h4.058c3.26 0 4.804 1.669 4.804 5.202v6.199c0 3.535-1.544 5.202-4.804 5.202h-4.058v-16.604"/><path d="M217.24 74.226h2.315v12.372h-2.315v-12.372zm0-4.232h2.315v2.416h-2.315v-2.416z"/><path d="M224.882 86.597l-3.038-12.371h2.464l1.767 7.866 1.57-7.866h2.439l-2.764 12.371h-2.439"/><path d="M237.401 78.085c0-1.469-.448-2.067-1.518-2.067-1.071 0-1.519.623-1.519 2.067v.671h3.036v-.671zm-3.036 2.714v1.095c0 1.195.075 1.741.299 2.165.224.424.698.673 1.27.673 1.02 0 1.492-.647 1.492-2.091v-.323h2.315c-.025 1.691-.099 2.239-.471 2.861-.599 1.071-1.794 1.669-3.336 1.669-1.42 0-2.49-.449-3.113-1.295-.547-.772-.771-1.693-.771-3.36v-3.684c0-1.968.224-2.789.996-3.511.671-.671 1.641-1.02 2.813-1.02 1.245 0 2.266.398 2.913 1.145.696.796.945 1.693.945 3.634v2.042h-5.351"/><path d="M244.795 74.226v2.141c.621-1.644 1.518-2.316 2.964-2.316v2.69c-.45-.175-.747-.225-1.121-.225-.623 0-1.12.225-1.444.646-.324.424-.399.823-.399 1.993v7.442h-2.315v-12.371h2.315"/><path d="M254.428 77.886c-.471-1.296-1.02-1.792-1.916-1.792-.721 0-1.219.448-1.219 1.095 0 .671.348.995 2.091 1.966 1.394.771 2.016 1.195 2.514 1.693.547.573.872 1.419.872 2.34 0 2.191-1.545 3.66-3.809 3.66-2.117 0-3.435-1.096-4.232-3.486l2.165-.746c.499 1.519 1.095 2.116 2.067 2.116.771 0 1.318-.524 1.318-1.245 0-.698-.398-1.145-1.741-1.866-1.742-.973-2.167-1.27-2.714-1.843-.573-.597-.896-1.444-.896-2.34 0-1.993 1.519-3.46 3.61-3.46 1.966 0 3.236.971 4.008 2.986l-2.117.922"/><path d="M258.984 74.226h2.316v12.372h-2.316v-12.372zm0-4.232h2.316v2.416h-2.316v-2.416z"/><path d="M269.564 76.292h-2.116v6.597c0 1.244.423 1.766 1.444 1.766.274 0 .498-.049.896-.15v2.091c-.647.125-1.045.175-1.567.175-1.171 0-2.018-.299-2.515-.921-.448-.547-.573-1.145-.573-2.714v-6.845h-1.792v-2.066h1.792v-3.385h2.315v3.385h2.116v2.066"/><path d="M279.321 74.226l-2.689 11.849c-.848 4.058-1.767 4.929-5.251 4.929v-2.389c.149.024.323.024.372.024 1.295 0 2.141-.821 2.141-2.041 0-.273-.05-.573-.175-1.07l-2.712-11.301h2.439l1.816 8.439 1.667-8.439h2.391"/></g></g></svg>